<svg xmlns="http://www.w3.org/2000/svg" xmlns:xlink="http://www.w3.org/1999/xlink" version="1.1" x="0px" y="0px" viewBox="0 0 100 125" style="enable-background:new 0 0 100 100;" xml:space="preserve"><style type="text/css">
	.st0{fill:none;stroke:#000000;stroke-width:4;stroke-miterlimit:10;}
</style><path d="M82.1,69.3c-3.9,0-7.3,1.7-9.7,4.4l-42-21c0.2-0.9,0.3-1.8,0.3-2.7c0-0.9-0.1-1.8-0.3-2.7l42-21c2.4,2.7,5.8,4.4,9.7,4.4  C89.2,30.7,95,25,95,17.9C95,10.8,89.2,5,82.1,5C75,5,69.3,10.8,69.3,17.9c0,0.9,0.1,1.8,0.3,2.7l-42,21c-2.4-2.7-5.8-4.4-9.7-4.4  C10.8,37.1,5,42.9,5,50c0,7.1,5.8,12.9,12.9,12.9c3.9,0,7.3-1.7,9.7-4.4l42,21c-0.2,0.9-0.3,1.8-0.3,2.7C69.3,89.2,75,95,82.1,95  C89.2,95,95,89.2,95,82.1C95,75,89.2,69.3,82.1,69.3z"/><text x="0" y="115" fill="#000000" font-size="5px" font-weight="bold" font-family="'Helvetica Neue', Helvetica, Arial-Unicode, Arial, Sans-serif">Created by Curve</text><text x="0" y="120" fill="#000000" font-size="5px" font-weight="bold" font-family="'Helvetica Neue', Helvetica, Arial-Unicode, Arial, Sans-serif">from the Noun Project</text></svg>