<svg xmlns="http://www.w3.org/2000/svg" data-name="Layer 1" viewBox="0 0 100 125" x="0px" y="0px"><title>Artboard 6</title><path d="M41.82,35.66l10.29-7H63.58a3.83,3.83,0,0,0,3.83-3.83V6a3.83,3.83,0,0,0-3.83-3.83H37A3.83,3.83,0,0,0,33.18,6V24.86A3.83,3.83,0,0,0,37,28.69h3.62V35A.77.77,0,0,0,41.82,35.66Zm9.84-13a.8.8,0,0,1-.8.8H48.8a.8.8,0,0,1-.8-.8V21.36a.8.8,0,0,1,.8-.8h2.06a.8.8,0,0,1,.8.8ZM46.28,8.56a6.2,6.2,0,0,1,3.89-1.14,6,6,0,0,1,4.08,1.31,4.46,4.46,0,0,1,1.49,3.53,4.23,4.23,0,0,1-.81,2.5,5.76,5.76,0,0,1-2.06,1.8,2.5,2.5,0,0,0-.94,1,2.82,2.82,0,0,0-.22.92.57.57,0,0,1-.57.51H48.59a.57.57,0,0,1-.57-.61,3.42,3.42,0,0,1,.52-1.66,8.06,8.06,0,0,1,1.95-1.75,3.53,3.53,0,0,0,1.15-1.13,2.89,2.89,0,0,0,.42-1.56,2.1,2.1,0,0,0-.49-1.46,1.78,1.78,0,0,0-1.39-.54A1.74,1.74,0,0,0,49,10.7a1.49,1.49,0,0,0-.43.72.84.84,0,0,1-.83.59l-2.34,0a.51.51,0,0,1-.5-.55A3.76,3.76,0,0,1,46.28,8.56ZM95.34,97.79H72.45l4.38-23.88A98.14,98.14,0,0,1,93.17,84.59a6,6,0,0,1,2.17,4.65ZM60.62,82,64,77.61,54.94,71v-4.2a13.85,13.85,0,0,1-1.72-4.72c-.66-.05-1.53-1-2.46-4.28-1.28-4.52.08-5.19,1.23-5.08a11.86,11.86,0,0,1-.5-1.86h0a13.24,13.24,0,0,1,0-6,13,13,0,0,1,3.48-6.09,16.72,16.72,0,0,1,3.22-2.66,12.52,12.52,0,0,1,3.12-1.6h0A10.37,10.37,0,0,1,64.11,34a11.71,11.71,0,0,1,7.13,1.51,8.86,8.86,0,0,1,3.47,3.23s5.76.41,3.81,12.11a11.89,11.89,0,0,1-.5,1.86c1.15-.11,2.51.56,1.23,5.08-.94,3.3-1.8,4.23-2.46,4.28a13.56,13.56,0,0,1-1.72,4.66V71L66,77.61,69.39,82l-2.3,3.69,1.79,12.14H61.13l1.79-12.14ZM57.57,97.79H4.66V89.67a6.49,6.49,0,0,1,3.68-5.21,30,30,0,0,1,5.39-2,58.22,58.22,0,0,0,8.55-3l.2-.12a2,2,0,0,0,.92-1.7V74.17c-9.1.08-11.78-3.82-11.78-3.82s5.2-.08,4.88-13.8,6-16,8.36-16.88c6.87-2.61,10.32,1.54,10.32,1.54,8-.74,10.15,8,9.18,17.86s4.46,11.44,4.46,11.44c-3.74,3.82-11.61,3.58-11.61,3.58V75h0V77.6a2,2,0,0,0,.92,1.7l.24.15a26.19,26.19,0,0,0,3.41,1.41,102.59,102.59,0,0,1,11.42-6.95Z"/><text x="0" y="115" fill="#000000" font-size="5px" font-weight="bold" font-family="'Helvetica Neue', Helvetica, Arial-Unicode, Arial, Sans-serif">Created by Gregor Črešnar</text><text x="0" y="120" fill="#000000" font-size="5px" font-weight="bold" font-family="'Helvetica Neue', Helvetica, Arial-Unicode, Arial, Sans-serif">from the Noun Project</text></svg>